<?xml version="1.0" encoding="UTF-8"?>
<svg xmlns="http://www.w3.org/2000/svg" xmlns:xlink="http://www.w3.org/1999/xlink" width="212px" height="60px" viewBox="0 0 211 60" version="1.1">
<g id="surface1">
<path style=" stroke:none;fill-rule:nonzero;fill:rgb(31.37255%,26.666668%,89.803922%);fill-opacity:1;" d="M 27.34375 12.03125 C 26.820312 13.273438 26.292969 14.546875 25.859375 15.605469 C 24.992188 17.714844 24.398438 19.128906 24.167969 19.660156 C 24.046875 19.929688 23.832031 20.441406 23.699219 20.789062 C 23.5625 21.136719 23.304688 21.773438 23.121094 22.195312 C 22.945312 22.621094 22.714844 23.167969 22.609375 23.410156 C 22.507812 23.652344 22.222656 24.347656 21.980469 24.953125 C 21.730469 25.5625 21.40625 26.34375 21.265625 26.691406 C 21.117188 27.039062 20.589844 28.316406 20.082031 29.53125 C 19.582031 30.746094 19.074219 31.964844 18.953125 32.238281 C 18.835938 32.519531 18.546875 33.226562 18.304688 33.8125 C 17.691406 35.3125 17.320312 36.21875 17.191406 36.492188 C 17.136719 36.625 17.089844 36.738281 17.089844 36.753906 C 17.089844 36.773438 17.039062 36.886719 16.984375 37.019531 C 16.859375 37.289062 16.777344 37.484375 16.457031 38.273438 C 16.332031 38.59375 16.007812 39.359375 15.742188 39.980469 C 15.480469 40.605469 15.054688 41.621094 14.804688 42.242188 C 14.542969 42.867188 14.304688 43.445312 14.257812 43.539062 C 14.21875 43.625 13.957031 44.261719 13.683594 44.945312 C 13.402344 45.628906 12.996094 46.621094 12.769531 47.152344 C 12.542969 47.679688 12.363281 48.125 12.363281 48.144531 C 12.363281 48.183594 17.296875 48.210938 17.5 48.171875 C 17.636719 48.148438 17.683594 48.09375 17.78125 47.851562 C 17.847656 47.695312 18.183594 46.859375 18.535156 45.992188 C 18.886719 45.125 19.441406 43.75 19.777344 42.933594 L 20.375 41.441406 L 26.222656 41.414062 C 32.640625 41.382812 32.496094 41.386719 33.941406 41.03125 C 35.085938 40.742188 36.6875 40.03125 37.777344 39.335938 C 38.855469 38.640625 40.035156 37.589844 40.890625 36.5625 C 42.050781 35.179688 43.046875 33.308594 43.523438 31.625 C 43.640625 31.207031 43.761719 30.839844 43.78125 30.816406 C 43.808594 30.789062 44.429688 30.632812 45.167969 30.46875 C 45.941406 30.292969 46.546875 30.125 46.605469 30.078125 C 46.753906 29.9375 46.808594 29.703125 46.871094 28.898438 C 46.925781 28.207031 46.910156 26.347656 46.835938 25.753906 C 46.800781 25.394531 46.710938 25.152344 46.605469 25.097656 C 46.46875 25.027344 45.34375 24.738281 44.726562 24.617188 C 44.625 24.601562 44.4375 24.550781 44.316406 24.511719 C 44.195312 24.472656 44.03125 24.425781 43.949219 24.40625 C 43.820312 24.378906 43.792969 24.332031 43.714844 24.003906 C 43.605469 23.519531 43.242188 22.460938 42.96875 21.820312 C 42.714844 21.230469 42.640625 21.4375 43.566406 20.183594 C 43.914062 19.714844 44.253906 19.214844 44.332031 19.070312 C 44.453125 18.839844 44.457031 18.792969 44.398438 18.601562 C 44.277344 18.230469 43.398438 17.160156 42.152344 15.867188 C 41.457031 15.15625 41.265625 15 41.039062 15 C 40.910156 15 40.304688 15.320312 39.726562 15.6875 C 39.058594 16.125 38.511719 16.433594 38.4375 16.433594 C 38.390625 16.433594 38.226562 16.351562 38.066406 16.246094 C 37.722656 16.03125 36.375 15.347656 35.917969 15.164062 C 35.699219 15.078125 35.59375 15.003906 35.578125 14.921875 C 35.566406 14.863281 35.507812 14.53125 35.441406 14.199219 C 35.1875 12.828125 35.019531 12.171875 34.898438 12.070312 C 34.726562 11.929688 34.296875 11.855469 33.65625 11.855469 L 33.078125 11.855469 L 33.078125 18.472656 L 33.347656 18.472656 C 33.742188 18.472656 34.167969 18.566406 34.507812 18.734375 C 34.929688 18.9375 35.492188 19.523438 35.722656 19.996094 C 35.902344 20.371094 35.910156 20.394531 35.910156 21.09375 C 35.910156 21.753906 35.890625 21.839844 35.761719 22.128906 C 35.4375 22.832031 34.953125 23.28125 34.210938 23.585938 L 33.835938 23.734375 L 33.863281 24.359375 C 33.875 24.707031 33.898438 24.992188 33.910156 25.007812 C 33.925781 25.019531 34.09375 24.992188 34.289062 24.949219 C 34.742188 24.84375 35.4375 24.5 35.835938 24.183594 C 36.667969 23.53125 37.253906 22.335938 37.253906 21.3125 C 37.253906 20.785156 37.289062 20.769531 37.902344 20.976562 C 38.683594 21.25 39.1875 21.738281 39.480469 22.527344 C 39.59375 22.824219 39.617188 22.992188 39.617188 23.449219 L 39.617188 24.003906 L 39.414062 23.972656 C 39.296875 23.957031 39.039062 23.90625 38.832031 23.855469 C 38.5625 23.800781 38.410156 23.789062 38.265625 23.835938 C 37.84375 23.949219 37.65625 24.347656 37.835938 24.734375 C 37.96875 25.007812 38.121094 25.097656 38.585938 25.148438 C 39.574219 25.261719 40.179688 25.671875 40.59375 26.515625 C 40.792969 26.921875 40.800781 26.949219 40.800781 27.539062 C 40.800781 28.121094 40.789062 28.167969 40.617188 28.527344 C 40.390625 28.980469 39.917969 29.488281 39.523438 29.691406 C 39.363281 29.769531 39.058594 29.863281 38.835938 29.894531 C 38.199219 29.988281 38.019531 30.0625 37.910156 30.25 C 37.707031 30.574219 37.820312 31.019531 38.144531 31.191406 C 38.347656 31.296875 38.835938 31.273438 39.222656 31.140625 C 39.34375 31.097656 39.472656 31.082031 39.507812 31.101562 C 39.546875 31.125 39.585938 31.339844 39.601562 31.617188 C 39.628906 31.992188 39.613281 32.15625 39.511719 32.46875 C 39.382812 32.90625 39.050781 33.398438 38.679688 33.699219 C 38.425781 33.910156 37.796875 34.167969 37.46875 34.203125 L 37.28125 34.21875 L 37.242188 33.695312 C 37.183594 32.828125 36.96875 32.246094 36.445312 31.527344 C 36.160156 31.140625 35.566406 30.644531 35.101562 30.417969 C 34.714844 30.226562 34.058594 30.042969 33.917969 30.09375 C 33.875 30.109375 33.851562 30.296875 33.851562 30.667969 C 33.847656 31.242188 33.875 31.378906 33.980469 31.378906 C 34.011719 31.378906 34.214844 31.460938 34.429688 31.566406 C 34.980469 31.832031 35.445312 32.28125 35.699219 32.800781 C 35.890625 33.183594 35.910156 33.257812 35.925781 33.78125 C 35.953125 34.457031 35.84375 34.890625 35.511719 35.453125 C 35.269531 35.863281 34.9375 36.136719 34.371094 36.40625 C 34.027344 36.566406 33.929688 36.585938 33.519531 36.585938 C 32.992188 36.585938 32.710938 36.484375 32.25 36.148438 C 31.902344 35.890625 31.640625 35.519531 31.425781 34.984375 L 31.25 34.550781 L 31.242188 23.207031 L 31.238281 11.855469 L 27.417969 11.855469 Z M 29.238281 27.160156 C 29.226562 33.496094 29.214844 34.390625 29.140625 34.644531 C 28.878906 35.535156 28.230469 36.21875 27.390625 36.496094 C 27.089844 36.59375 26.859375 36.605469 24.832031 36.632812 C 23.601562 36.652344 22.546875 36.652344 22.488281 36.640625 C 22.390625 36.613281 22.40625 36.550781 22.683594 35.855469 C 22.84375 35.441406 23.109375 34.792969 23.269531 34.410156 C 23.433594 34.03125 23.636719 33.523438 23.726562 33.28125 C 23.8125 33.039062 24.128906 32.253906 24.417969 31.542969 C 24.714844 30.832031 25.347656 29.277344 25.824219 28.097656 C 27.496094 23.96875 27.890625 23.007812 28.417969 21.753906 C 28.601562 21.332031 28.832031 20.761719 28.9375 20.492188 C 29.144531 19.945312 29.175781 19.886719 29.214844 19.929688 C 29.230469 19.945312 29.242188 23.199219 29.238281 27.160156 Z M 29.238281 27.160156 "/>
<path style=" stroke:none;fill-rule:nonzero;fill:rgb(31.37255%,26.666668%,89.803922%);fill-opacity:1;" d="M 162.960938 19.503906 C 162.9375 19.523438 162.921875 24.484375 162.921875 30.535156 L 162.921875 41.527344 L 164.625 41.515625 L 166.332031 41.5 L 166.332031 33.722656 C 166.328125 29.441406 166.328125 24.492188 166.328125 22.703125 L 166.328125 19.46875 L 164.664062 19.46875 C 163.746094 19.46875 162.976562 19.484375 162.960938 19.503906 Z M 162.960938 19.503906 "/>
<path style=" stroke:none;fill-rule:nonzero;fill:rgb(31.37255%,26.666668%,89.803922%);fill-opacity:1;" d="M 95.664062 19.859375 C 93.921875 20.105469 92.5 20.585938 91.273438 21.324219 C 90.230469 21.964844 89.085938 22.964844 88.457031 23.796875 C 87.863281 24.578125 87.382812 25.367188 87.121094 26 C 86.070312 28.5 85.851562 31.378906 86.511719 33.859375 C 87.207031 36.464844 88.605469 38.476562 90.773438 40.007812 C 92.328125 41.101562 93.988281 41.667969 96.207031 41.867188 C 97.929688 42.015625 100.199219 41.582031 101.597656 40.824219 C 104.230469 39.402344 105.96875 37.179688 106.675781 34.3125 C 106.957031 33.175781 107.003906 32.714844 107.011719 31.214844 L 107.011719 29.808594 L 96.625 29.808594 L 96.609375 31.269531 C 96.605469 32.074219 96.609375 32.785156 96.625 32.851562 L 96.652344 32.976562 L 99.984375 32.976562 C 102.882812 32.976562 103.308594 32.988281 103.335938 33.0625 C 103.410156 33.25 103 34.582031 102.652344 35.265625 C 102 36.578125 100.917969 37.53125 99.472656 38.078125 C 98.53125 38.4375 97.648438 38.546875 96.367188 38.480469 C 94.894531 38.40625 93.769531 37.972656 92.484375 37 C 91.222656 36.042969 90.230469 34.390625 89.863281 32.621094 C 89.773438 32.210938 89.757812 31.890625 89.757812 30.828125 C 89.761719 29.636719 89.773438 29.480469 89.90625 28.890625 C 90.316406 27.050781 91.300781 25.496094 92.667969 24.519531 C 93.105469 24.203125 93.910156 23.757812 94.3125 23.609375 C 95.71875 23.085938 97.878906 23.0625 99.40625 23.554688 C 100.539062 23.917969 102.027344 24.992188 102.796875 25.996094 L 102.917969 26.15625 L 103.085938 25.996094 C 103.558594 25.554688 105.335938 23.648438 105.335938 23.585938 C 105.335938 23.464844 104.355469 22.488281 103.796875 22.046875 C 102.40625 20.957031 100.882812 20.28125 99.070312 19.964844 C 98.296875 19.824219 96.308594 19.765625 95.664062 19.859375 Z M 95.664062 19.859375 "/>
<path style=" stroke:none;fill-rule:nonzero;fill:rgb(31.37255%,26.666668%,89.803922%);fill-opacity:1;" d="M 64.757812 20.15625 C 64.679688 20.21875 64.320312 21.089844 62.746094 25.0625 C 62.441406 25.820312 62.144531 26.5625 62.085938 26.71875 C 61.683594 27.699219 60.515625 30.652344 60.386719 30.992188 C 60.300781 31.21875 60.078125 31.777344 59.894531 32.234375 C 59.707031 32.6875 59.449219 33.332031 59.316406 33.667969 C 59.191406 34 58.816406 34.929688 58.492188 35.734375 C 57.644531 37.835938 56.261719 41.316406 56.226562 41.433594 C 56.199219 41.519531 56.304688 41.527344 58.074219 41.515625 L 59.953125 41.5 L 60.109375 41.058594 C 60.195312 40.8125 60.453125 40.136719 60.683594 39.546875 C 60.921875 38.960938 61.195312 38.226562 61.304688 37.925781 C 61.410156 37.617188 61.53125 37.296875 61.574219 37.214844 L 61.65625 37.058594 L 70.832031 37.058594 L 70.976562 37.375 C 71.046875 37.550781 71.207031 37.964844 71.324219 38.300781 C 71.527344 38.882812 71.628906 39.15625 71.789062 39.511719 C 71.867188 39.683594 72.148438 40.4375 72.382812 41.113281 L 72.519531 41.5 L 74.4375 41.515625 L 76.359375 41.527344 L 75.980469 40.578125 C 75.773438 40.054688 75.472656 39.285156 75.3125 38.878906 C 75.046875 38.207031 73.464844 34.222656 72.90625 32.839844 C 72.785156 32.535156 72.085938 30.789062 71.351562 28.953125 C 70.613281 27.117188 69.675781 24.773438 69.261719 23.742188 C 68.84375 22.710938 68.359375 21.496094 68.183594 21.042969 C 68.007812 20.59375 67.839844 20.195312 67.804688 20.160156 C 67.722656 20.078125 64.855469 20.074219 64.757812 20.15625 Z M 66.460938 25.53125 C 66.773438 26.386719 68.359375 30.539062 69.222656 32.757812 L 69.65625 33.886719 L 69.046875 33.914062 C 68.109375 33.960938 62.933594 33.949219 62.886719 33.90625 C 62.867188 33.882812 62.96875 33.546875 63.125 33.160156 C 63.277344 32.773438 63.628906 31.859375 63.90625 31.128906 C 64.765625 28.863281 65.097656 28.007812 65.359375 27.324219 C 65.503906 26.960938 65.640625 26.574219 65.671875 26.46875 C 65.707031 26.367188 65.820312 26.039062 65.9375 25.753906 C 66.046875 25.46875 66.15625 25.179688 66.179688 25.125 C 66.230469 24.976562 66.285156 25.054688 66.460938 25.53125 Z M 66.460938 25.53125 "/>
<path style=" stroke:none;fill-rule:nonzero;fill:rgb(31.37255%,26.666668%,89.803922%);fill-opacity:1;" d="M 79.136719 20.128906 C 79.113281 20.144531 79.097656 24.964844 79.097656 30.839844 L 79.097656 41.527344 L 82.640625 41.527344 L 82.648438 32.492188 C 82.652344 21.726562 82.648438 20.183594 82.609375 20.117188 C 82.574219 20.066406 79.203125 20.074219 79.136719 20.128906 Z M 79.136719 20.128906 "/>
<path style=" stroke:none;fill-rule:nonzero;fill:rgb(31.37255%,26.666668%,89.803922%);fill-opacity:1;" d="M 145.242188 20.113281 L 144.128906 20.128906 L 144.128906 41.527344 L 149.117188 41.527344 C 153.398438 41.527344 154.183594 41.515625 154.628906 41.4375 C 156.085938 41.195312 157.246094 40.609375 158.222656 39.625 C 159.367188 38.476562 159.898438 36.867188 159.777344 34.953125 C 159.707031 33.8125 159.347656 32.808594 158.699219 31.953125 C 158.246094 31.34375 157.699219 30.886719 156.753906 30.308594 C 156.667969 30.257812 156.601562 30.199219 156.601562 30.175781 C 156.601562 30.15625 156.734375 30.050781 156.894531 29.945312 C 157.847656 29.300781 158.550781 28.273438 158.832031 27.089844 C 158.964844 26.542969 158.976562 26.433594 158.949219 25.5625 C 158.925781 24.722656 158.910156 24.5625 158.761719 24.066406 C 158.546875 23.355469 158.28125 22.847656 157.816406 22.269531 C 157.125 21.40625 156.113281 20.734375 155.050781 20.4375 C 154.003906 20.140625 153.726562 20.117188 149.898438 20.105469 C 147.949219 20.101562 145.855469 20.105469 145.242188 20.113281 Z M 152.835938 23.21875 C 154.449219 23.425781 155.441406 24.535156 155.449219 26.125 C 155.449219 26.394531 155.402344 26.65625 155.308594 26.949219 C 155.074219 27.707031 154.699219 28.148438 154.003906 28.484375 C 153.382812 28.785156 153.117188 28.808594 150.28125 28.8125 L 147.726562 28.8125 L 147.699219 26.03125 C 147.679688 24.042969 147.6875 23.226562 147.734375 23.1875 C 147.816406 23.117188 152.25 23.140625 152.835938 23.21875 Z M 153.28125 31.902344 C 154.53125 32.113281 155.394531 32.703125 155.859375 33.660156 C 156.492188 34.957031 156.261719 36.660156 155.332031 37.523438 C 154.773438 38.046875 153.871094 38.421875 153.128906 38.4375 C 152.9375 38.441406 151.640625 38.441406 150.242188 38.441406 L 147.699219 38.4375 L 147.699219 35.167969 C 147.699219 33.363281 147.714844 31.875 147.738281 31.859375 C 147.753906 31.835938 148.902344 31.820312 150.28125 31.820312 C 152.261719 31.820312 152.898438 31.835938 153.28125 31.902344 Z M 153.28125 31.902344 "/>
<path style=" stroke:none;fill-rule:nonzero;fill:rgb(31.37255%,26.666668%,89.803922%);fill-opacity:1;" d="M 115.609375 26.304688 C 115.171875 26.359375 114.445312 26.542969 113.996094 26.714844 C 112.472656 27.285156 111.238281 28.339844 110.296875 29.851562 C 109.8125 30.625 109.40625 31.898438 109.285156 33.011719 C 109.199219 33.855469 109.253906 35.101562 109.421875 35.878906 C 109.785156 37.542969 110.691406 39.054688 111.957031 40.074219 C 112.894531 40.835938 113.835938 41.292969 115.117188 41.621094 C 115.785156 41.789062 115.957031 41.8125 116.863281 41.839844 C 117.90625 41.875 118.28125 41.839844 119.164062 41.628906 C 120.226562 41.375 120.8125 41.125 121.644531 40.542969 C 122.136719 40.203125 123.136719 39.304688 123.136719 39.203125 C 123.136719 39.183594 122.933594 38.984375 122.6875 38.761719 C 122.433594 38.546875 121.953125 38.09375 121.617188 37.757812 L 120.996094 37.152344 L 120.65625 37.476562 C 120.0625 38.046875 119.460938 38.386719 118.578125 38.664062 C 118.210938 38.78125 118.0625 38.796875 117.203125 38.796875 C 116.367188 38.789062 116.183594 38.773438 115.804688 38.667969 C 114.589844 38.316406 113.597656 37.539062 113.089844 36.523438 C 112.902344 36.144531 112.671875 35.382812 112.726562 35.292969 C 112.746094 35.253906 114.648438 35.238281 118.277344 35.238281 L 123.785156 35.238281 L 123.820312 35.085938 C 123.984375 34.324219 123.957031 32.648438 123.765625 31.710938 C 123.683594 31.316406 123.378906 30.445312 123.15625 29.972656 C 122.757812 29.117188 122.015625 28.203125 121.277344 27.652344 C 120.742188 27.25 119.929688 26.816406 119.402344 26.648438 C 118.507812 26.355469 118.097656 26.289062 117.011719 26.273438 C 116.441406 26.265625 115.808594 26.277344 115.609375 26.304688 Z M 117.945312 29.3125 C 118.859375 29.558594 119.832031 30.335938 120.191406 31.101562 C 120.390625 31.523438 120.632812 32.34375 120.589844 32.460938 C 120.570312 32.503906 119.460938 32.519531 116.6875 32.53125 C 113.160156 32.542969 112.800781 32.535156 112.773438 32.453125 C 112.71875 32.320312 112.996094 31.582031 113.253906 31.148438 C 113.527344 30.683594 114.210938 29.984375 114.632812 29.734375 C 115.035156 29.5 115.609375 29.300781 116.082031 29.234375 C 116.589844 29.160156 117.539062 29.207031 117.945312 29.3125 Z M 117.945312 29.3125 "/>
<path style=" stroke:none;fill-rule:nonzero;fill:rgb(31.37255%,26.666668%,89.803922%);fill-opacity:1;" d="M 133.496094 26.3125 C 132.953125 26.386719 132.214844 26.625 131.742188 26.875 C 131.265625 27.121094 130.5625 27.65625 130.414062 27.875 C 130.230469 28.15625 130.183594 28.058594 130.144531 27.277344 L 130.105469 26.535156 L 128.433594 26.542969 L 126.765625 26.554688 L 126.757812 26.855469 C 126.753906 27.023438 126.753906 27.320312 126.753906 27.519531 C 126.757812 27.71875 126.757812 30.949219 126.765625 34.699219 L 126.765625 41.527344 L 130.105469 41.527344 L 130.136719 41.316406 C 130.15625 41.207031 130.167969 39.210938 130.167969 36.882812 C 130.160156 34.554688 130.175781 32.542969 130.199219 32.414062 C 130.253906 32.0625 130.441406 31.4375 130.566406 31.1875 C 130.871094 30.589844 131.414062 30.054688 132.019531 29.757812 C 132.847656 29.347656 134.332031 29.347656 135.167969 29.757812 C 135.644531 29.996094 136.160156 30.523438 136.425781 31.058594 C 136.875 31.964844 136.84375 31.554688 136.863281 36.820312 L 136.878906 41.527344 L 140.347656 41.527344 L 140.320312 36.574219 C 140.308594 33.855469 140.28125 31.539062 140.261719 31.433594 C 140.238281 31.328125 140.183594 31.03125 140.140625 30.777344 C 139.707031 28.363281 137.957031 26.695312 135.445312 26.304688 C 135.023438 26.238281 133.964844 26.246094 133.496094 26.3125 Z M 133.496094 26.3125 "/>
<path style=" stroke:none;fill-rule:nonzero;fill:rgb(31.37255%,26.666668%,89.803922%);fill-opacity:1;" d="M 175.519531 26.3125 C 175.128906 26.359375 174.042969 26.640625 173.71875 26.773438 C 172.558594 27.257812 171.8125 27.800781 171.03125 28.726562 C 170.464844 29.40625 170.191406 29.828125 169.886719 30.519531 C 169.074219 32.367188 168.960938 34.796875 169.601562 36.746094 C 169.789062 37.324219 170.222656 38.199219 170.546875 38.652344 C 171.515625 40.019531 173.015625 41.105469 174.542969 41.546875 C 176.027344 41.976562 177.296875 41.976562 178.980469 41.546875 C 180.164062 41.25 181.101562 40.691406 182.125 39.695312 C 182.730469 39.109375 183.066406 38.691406 182.828125 38.816406 C 182.75 38.855469 182.71875 38.855469 182.71875 38.808594 C 182.71875 38.769531 182.695312 38.695312 182.675781 38.640625 C 182.648438 38.574219 182.65625 38.546875 182.703125 38.558594 C 182.742188 38.570312 182.777344 38.515625 182.789062 38.441406 L 182.8125 38.3125 L 182.703125 38.453125 C 182.640625 38.53125 182.59375 38.636719 182.59375 38.695312 C 182.59375 38.78125 182.582031 38.785156 182.535156 38.714844 C 182.492188 38.648438 182.480469 38.648438 182.480469 38.707031 C 182.480469 38.75 182.464844 38.773438 182.449219 38.757812 C 182.433594 38.734375 182.453125 38.664062 182.5 38.59375 C 182.542969 38.527344 182.597656 38.40625 182.621094 38.328125 C 182.640625 38.25 182.683594 38.15625 182.71875 38.113281 C 182.804688 38.007812 182.8125 37.886719 182.742188 37.886719 C 182.703125 37.886719 182.710938 37.863281 182.757812 37.832031 C 182.800781 37.804688 182.839844 37.753906 182.839844 37.71875 C 182.839844 37.6875 182.878906 37.636719 182.921875 37.605469 C 182.992188 37.554688 182.992188 37.550781 182.910156 37.570312 C 182.832031 37.597656 182.828125 37.578125 182.878906 37.402344 C 182.960938 37.097656 183.027344 37 183.128906 37.015625 C 183.242188 37.035156 183.304688 36.847656 183.515625 35.984375 C 183.648438 35.421875 183.65625 35.289062 183.65625 34.109375 C 183.65625 33.003906 183.640625 32.769531 183.535156 32.277344 C 183.027344 29.921875 181.558594 28 179.546875 27.042969 C 179.070312 26.816406 178.925781 26.761719 178.273438 26.519531 C 177.679688 26.304688 176.332031 26.199219 175.519531 26.3125 Z M 176.601562 29.503906 C 177.503906 29.613281 178.148438 29.917969 178.8125 30.546875 C 179.804688 31.484375 180.246094 32.554688 180.246094 34.027344 C 180.238281 35.210938 180.042969 35.917969 179.394531 37 C 178.886719 37.835938 178.304688 38.332031 177.613281 38.519531 C 177.183594 38.636719 176.3125 38.636719 175.75 38.519531 C 174.960938 38.359375 173.855469 37.71875 173.167969 37.027344 C 172.867188 36.722656 172.480469 36.089844 172.316406 35.609375 C 172.058594 34.871094 172.058594 32.8125 172.316406 31.972656 C 172.46875 31.460938 172.941406 30.839844 173.53125 30.363281 C 174.054688 29.945312 174.222656 29.84375 174.734375 29.675781 C 175.339844 29.46875 175.910156 29.421875 176.601562 29.503906 Z M 182.042969 39.671875 C 182.042969 39.683594 182.003906 39.722656 181.960938 39.761719 C 181.886719 39.820312 181.882812 39.816406 181.910156 39.738281 C 181.9375 39.660156 182.042969 39.613281 182.042969 39.671875 Z M 181.710938 39.976562 C 181.710938 40.003906 181.675781 40.042969 181.625 40.058594 C 181.546875 40.085938 181.542969 40.082031 181.601562 40.007812 C 181.679688 39.914062 181.710938 39.90625 181.710938 39.976562 Z M 181.710938 39.976562 "/>
<path style=" stroke:none;fill-rule:nonzero;fill:rgb(31.37255%,26.666668%,89.803922%);fill-opacity:1;" d="M 191.554688 26.332031 C 191 26.433594 190.097656 26.730469 189.613281 26.972656 C 188.652344 27.453125 187.65625 28.34375 186.992188 29.3125 C 186.113281 30.59375 185.582031 32.609375 185.695312 34.191406 C 185.851562 36.320312 186.539062 37.945312 187.8125 39.214844 C 188.625 40.027344 189.515625 40.578125 190.570312 40.917969 C 191.878906 41.34375 193.640625 41.359375 194.75 40.957031 C 195.417969 40.714844 196.160156 40.261719 196.585938 39.828125 C 196.808594 39.613281 197.011719 39.429688 197.042969 39.429688 C 197.113281 39.429688 197.109375 39.378906 197.097656 40.609375 C 197.085938 41.808594 197.011719 42.210938 196.679688 42.886719 C 196.308594 43.648438 195.460938 44.386719 194.648438 44.667969 C 193.855469 44.945312 192.390625 45.03125 191.546875 44.863281 C 190.796875 44.703125 189.882812 44.289062 189.269531 43.824219 C 189.148438 43.730469 188.835938 43.449219 188.574219 43.191406 L 188.101562 42.726562 L 187.585938 43.214844 C 186.761719 43.992188 185.832031 44.90625 185.832031 44.945312 C 185.832031 45.027344 186.449219 45.695312 186.851562 46.046875 C 188.335938 47.355469 189.976562 48.011719 192.109375 48.144531 C 193.132812 48.210938 194.113281 48.148438 194.789062 47.976562 C 196.808594 47.46875 198.152344 46.609375 199.179688 45.171875 C 199.921875 44.128906 200.242188 43.269531 200.402344 41.890625 C 200.511719 40.917969 200.394531 33.171875 200.253906 31.996094 C 200.214844 31.699219 200.152344 31.625 200.09375 31.824219 C 200.054688 31.9375 200.054688 31.929688 199.921875 31.792969 L 199.789062 31.648438 L 199.785156 29.734375 C 199.78125 28.683594 199.773438 27.761719 199.769531 27.683594 C 199.761719 27.605469 199.753906 27.3125 199.746094 27.03125 L 199.734375 26.527344 L 198.378906 26.535156 L 197.015625 26.554688 L 197 27.199219 C 196.992188 27.558594 196.960938 27.847656 196.9375 27.847656 C 196.910156 27.847656 196.707031 27.683594 196.484375 27.472656 C 195.933594 26.976562 195.203125 26.609375 194.351562 26.40625 C 193.722656 26.253906 192.21875 26.21875 191.554688 26.332031 Z M 194.351562 29.585938 C 195.367188 29.902344 196.289062 30.640625 196.707031 31.484375 C 197.105469 32.277344 197.234375 32.949219 197.195312 34.027344 C 197.160156 34.972656 196.976562 35.601562 196.542969 36.230469 C 196.203125 36.738281 196.058594 36.886719 195.652344 37.207031 C 194.976562 37.730469 194.246094 37.957031 193.167969 37.964844 C 191.925781 37.972656 191.246094 37.703125 190.425781 36.875 C 189.691406 36.132812 189.339844 35.414062 189.1875 34.3125 C 189.074219 33.558594 189.222656 32.492188 189.53125 31.820312 C 189.742188 31.367188 190.121094 30.839844 190.476562 30.507812 C 191.101562 29.917969 191.53125 29.679688 192.234375 29.53125 C 192.742188 29.425781 193.925781 29.460938 194.351562 29.585938 Z M 194.351562 29.585938 "/>
<path style=" stroke:none;fill-rule:nonzero;fill:rgb(31.37255%,26.666668%,89.803922%);fill-opacity:1;" d="M 43.132812 36.566406 C 42.75 37.300781 40.976562 39.238281 40.074219 39.921875 L 39.621094 40.257812 L 39.835938 40.792969 C 39.953125 41.089844 40.296875 41.9375 40.605469 42.683594 C 40.917969 43.429688 41.222656 44.171875 41.28125 44.339844 C 41.390625 44.640625 41.886719 45.859375 42.457031 47.234375 C 42.625 47.625 42.777344 48.011719 42.808594 48.082031 L 42.859375 48.210938 L 44.222656 48.183594 C 44.96875 48.160156 46.15625 48.144531 46.863281 48.144531 C 47.882812 48.144531 48.132812 48.125 48.097656 48.070312 C 48.070312 48.039062 47.984375 47.84375 47.914062 47.648438 C 47.847656 47.449219 47.667969 47.011719 47.519531 46.683594 C 47.371094 46.34375 47.035156 45.550781 46.777344 44.917969 C 46.519531 44.277344 46.261719 43.660156 46.207031 43.539062 C 46.152344 43.417969 46.023438 43.109375 45.921875 42.847656 C 45.816406 42.589844 45.476562 41.773438 45.167969 41.03125 C 44.859375 40.285156 44.464844 39.332031 44.289062 38.90625 C 43.863281 37.871094 43.449219 36.90625 43.308594 36.644531 L 43.207031 36.429688 Z M 43.132812 36.566406 "/>
</g>
</svg>
