<svg xmlns="http://www.w3.org/2000/svg" version="1.0" width="500.000000pt" height="500.000000pt" viewBox="0 0 500.000000 500.000000" preserveAspectRatio="xMidYMid meet">

<g transform="translate(0.000000,500.000000) scale(0.100000,-0.100000)" fill="#5044e5" stroke="none">
<path d="M2134 4262 c-13 -8 -108 -225 -219 -497 -43 -104 -83 -203 -90 -220 -18 -40 -159 -377 -228 -545 -74 -179 -249 -598 -304 -730 -25 -58 -51 -121 -58 -140 -7 -19 -41 -100 -75 -180 -34 -80 -86 -203 -115 -275 -29 -71 -83 -202 -120 -290 -294 -699 -314 -749 -301 -757 6 -4 120 -8 253 -8 241 0 243 0 257 23 8 12 53 117 100 232 122 304 165 408 174 417 5 5 276 10 603 12 372 3 620 8 664 15 165 27 362 107 514 209 254 171 473 467 552 749 12 43 25 82 29 86 7 9 125 41 211 57 83 16 89 23 101 121 9 78 4 316 -8 366 -7 26 -33 37 -149 63 -142 31 -149 34 -157 61 -13 46 -66 204 -83 249 l-18 46 80 109 c45 61 83 119 87 130 9 30 -34 91 -163 231 -109 120 -148 154 -173 154 -7 0 -69 -34 -137 -75 l-124 -74 -41 25 c-37 23 -165 86 -226 111 -23 9 -28 23 -55 159 l-30 149 -35 12 c-19 7 -61 12 -93 12 l-57 1 2 -327 3 -328 50 -5 c67 -8 125 -40 173 -97 115 -134 61 -356 -101 -418 l-47 -18 0 -60 0 -59 33 6 c58 11 141 59 189 108 62 64 98 139 106 225 l7 68 45 -3 c109 -7 199 -119 200 -248 0 -33 -2 -63 -5 -66 -3 -3 -32 0 -64 7 -67 14 -96 6 -112 -29 -10 -20 -9 -30 4 -50 16 -24 28 -28 112 -41 52 -8 112 -49 150 -104 28 -40 30 -48 30 -136 0 -88 -2 -95 -31 -136 -47 -64 -99 -97 -174 -110 -68 -12 -90 -28 -90 -65 0 -43 26 -56 104 -52 l71 3 3 -52 c5 -83 -13 -129 -72 -189 -51 -50 -99 -74 -152 -74 -19 0 -22 7 -26 70 -10 132 -91 246 -220 309 -88 44 -103 40 -103 -23 l0 -50 57 -33 c69 -40 125 -103 139 -157 6 -23 9 -71 7 -107 -11 -147 -115 -250 -253 -250 -88 0 -158 47 -207 141 l-23 45 -1 1115 c0 613 -2 1132 -2 1153 l-2 37 -177 0 c-98 0 -183 -4 -189 -8z m166 -2292 c-20 -74 -100 -158 -177 -186 -48 -17 -513 -20 -513 -4 0 10 45 123 255 645 29 72 80 198 115 280 34 83 86 209 115 280 29 72 66 162 83 200 65 149 102 239 102 250 0 6 6 17 13 24 16 16 23 -1429 7 -1489z" fill="#5044e5"/>
<path d="M3671 1715 c-42 -62 -187 -210 -266 -271 l-40 -31 14 -39 c7 -21 21 -57 31 -79 9 -22 27 -62 38 -90 30 -70 179 -438 206 -509 13 -32 30 -63 39 -68 18 -10 491 -7 501 3 4 3 -10 46 -30 95 -20 49 -47 114 -59 144 -12 30 -42 102 -67 160 -25 58 -69 161 -98 230 -29 69 -74 175 -100 235 -26 61 -63 149 -81 197 -19 49 -36 88 -39 88 -3 0 -25 -29 -49 -65z" fill="#5044e5"/>
</g>
</svg>